<?xml version="1.0" encoding="UTF-8"?>
<svg width="87px" height="52px" viewBox="0 0 87 52" version="1.1" xmlns="http://www.w3.org/2000/svg" xmlns:xlink="http://www.w3.org/1999/xlink">
    <!-- Generator: Sketch 55.2 (78181) - https://sketchapp.com -->
    <title>JustNeedsLove</title>
    <desc>Created with Sketch.</desc>
    <g id="Page-1" stroke="none" stroke-width="1" fill="none" fill-rule="evenodd">
        <g id="JustNeedsLove" transform="translate(0.000000, 1.000000)">
            <g id="Group" stroke-linecap="round" stroke-linejoin="round" transform="translate(0.000000, 0.000000)" stroke="#000000">
                <polygon id="Path" fill="#FFFFFF" fill-rule="nonzero" points="0.884 0.296 86.271 0.296 86.271 49.698 0.884 49.698"></polygon>
                <path d="M86.27,49.698 L69.474,38.27 L17.682,38.27 L0.884,49.698 M69.48,0.296 L69.48,38.273 M17.84,0.296 L17.84,38.273" id="Shape"></path>
            </g>
            <g id="Group" stroke-linejoin="round" transform="translate(27.000000, 13.000000)" stroke="#000000">
                <polygon id="Path" fill="#FFFFFF" fill-rule="nonzero" stroke-linecap="round" points="0 23.082 31.959 23.082 31.959 27.817 0 27.817"></polygon>
                <path d="M1.776,28.408 L1.776,29 M30.184,28.408 L30.184,29" id="Shape" stroke-linecap="square"></path>
                <path d="M1.776,20.122 C1.77875402,18.4885412 3.10254041,17.1652021 4.736,17.163 L27.224,17.163 C28.8583057,17.1641031 30.1828969,18.4886943 30.184,20.123 L30.184,23.082 L1.776,23.082 L1.776,20.122 L1.776,20.122 Z M12.429,0 L19.531,0 L19.531,12.429 L12.429,12.429 L12.429,0 Z" id="Shape" fill="#FFFFFF" fill-rule="nonzero" stroke-linecap="round"></path>
            </g>
            <g id="Group" stroke-linejoin="round" transform="translate(60.000000, 16.000000)" stroke="#000000">
                <path d="M5.72,8.32 L5.72,25.488 M3.64,25.48 L7.8,25.48" id="Shape" stroke-linecap="square"></path>
                <polygon id="Path" fill="#FFFFFF" fill-rule="nonzero" stroke-linecap="round" points="0 0 11.44 0 10.4 8.32 1.04 8.32"></polygon>
            </g>
            <path d="M23.864,42 C23.923,41.827 24.454,40.556 24.454,40.382 L25.636,36.396 L25.636,36.222 C25.636,35.24 24.868,34.489 23.864,34.489 L19.136,34.489 C18.132,34.489 17.364,35.24 17.364,36.222 L18.545,40.382 C18.545,40.556 19.077,41.884 19.136,42 L23.864,42 L23.864,42 Z M23.273,40.267 C23.273,40.613 23.036,40.844 22.682,40.844 L20.318,40.844 C19.964,40.844 19.728,40.614 19.728,40.267 L18.545,36.164 C18.605,35.876 18.841,35.644 19.136,35.644 L23.864,35.644 C24.159,35.644 24.395,35.876 24.454,36.164 L23.273,40.094 L23.273,40.267 L23.273,40.267 Z M19.727,23.51 L20.318,23.51 L20.318,22.932 C20.318,20.39 18.191,18.31 15.591,18.31 L15,18.31 L15,18.888 C15,21.43 17.127,23.51 19.727,23.51 L19.727,23.51 Z M19.077,22.297 C17.659,22.007 16.537,20.91 16.241,19.523 C17.659,19.813 18.781,20.91 19.077,22.297 Z M22.682,22.355 L22.682,22.932 L23.272,22.932 C25.872,22.932 28,20.852 28,18.31 L28,17.732 L27.41,17.732 C24.81,17.732 22.682,19.812 22.682,22.355 L22.682,22.355 Z M26.759,18.945 C26.464,20.332 25.341,21.43 23.923,21.719 C24.218,20.332 25.341,19.235 26.759,18.946 L26.759,18.945 Z M19.727,28.132 L20.318,28.132 L20.318,27.555 C20.318,25.012 18.191,22.932 15.591,22.932 L15,22.932 L15,23.51 C15,26.052 17.127,28.132 19.727,28.132 L19.727,28.132 Z M19.077,26.919 C17.659,26.63 16.537,25.532 16.241,24.146 C17.659,24.435 18.781,25.532 19.077,26.919 Z M28,22.356 L27.41,22.356 C24.81,22.356 22.682,24.436 22.682,26.978 L22.682,27.556 L23.272,27.556 C25.872,27.556 28,25.476 28,22.933 L28,22.356 L28,22.356 Z M23.923,26.342 C24.218,24.956 25.341,23.858 26.759,23.569 C26.464,24.956 25.341,26.053 23.923,26.342 Z M19.727,32.756 L20.318,32.756 L20.318,32.178 C20.318,29.636 18.191,27.556 15.591,27.556 L15,27.556 L15,28.133 C15,30.676 17.127,32.756 19.727,32.756 L19.727,32.756 Z M19.077,31.542 C17.659,31.253 16.537,30.156 16.241,28.769 C17.659,29.058 18.781,30.156 19.077,31.542 Z M22.682,31.6 L22.682,32.178 L23.272,32.178 C25.872,32.178 28,30.098 28,27.556 L28,26.978 L27.41,26.978 C24.81,26.978 22.682,29.058 22.682,31.6 Z M26.759,28.191 C26.464,29.578 25.341,30.676 23.923,30.964 C24.218,29.578 25.341,28.48 26.759,28.191 Z M17.364,17.156 C19.314,17.156 20.909,18.716 20.909,20.622 L20.909,33.333 C20.909,33.68 21.145,33.911 21.5,33.911 C21.855,33.911 22.09,33.68 22.09,33.333 L22.09,20.623 C22.09,18.716 23.686,17.156 25.636,17.156 C25.991,17.156 26.227,16.924 26.227,16.578 C26.227,16.231 25.991,16 25.637,16 C23.864,16 22.327,16.982 21.5,18.369 C20.673,16.982 19.136,16 17.364,16 C17.009,16 16.773,16.231 16.773,16.578 C16.773,16.924 17.009,17.156 17.363,17.156 L17.364,17.156 Z" id="Shape" fill="#000000" fill-rule="nonzero"></path>
            <path d="M19.077,31.542 C17.659,31.253 16.537,30.156 16.241,28.769 C17.659,29.058 18.781,30.156 19.077,31.542 Z" id="Path" fill="#FFFFFF"></path>
            <path d="M19.077,26.919 C17.659,26.63 16.537,25.532 16.241,24.146 C17.659,24.435 18.781,25.532 19.077,26.919 Z" id="Path" fill="#FFFFFF"></path>
            <path d="M19.077,22.297 C17.659,22.007 16.537,20.91 16.241,19.523 C17.659,19.813 18.781,20.91 19.077,22.297 Z" id="Path" fill="#FFFFFF"></path>
            <path d="M23.864,42 C23.923,41.827 24.454,40.556 24.454,40.382 L25.636,36.396 L25.636,36.222 C25.636,35.24 24.868,34.489 23.864,34.489 L19.136,34.489 C18.132,34.489 17.364,35.24 17.364,36.222 L18.545,40.382 C18.545,40.556 19.077,41.884 19.136,42 L23.864,42 L23.864,42 Z" id="Path" stroke="#000000" fill="#FFFFFF" fill-rule="nonzero"></path>
        </g>
    </g>
</svg>