<?xml version="1.0" encoding="UTF-8"?>
<svg width="79px" height="53px" viewBox="0 0 79 53" version="1.1" xmlns="http://www.w3.org/2000/svg" xmlns:xlink="http://www.w3.org/1999/xlink">
    <!-- Generator: Sketch 55.2 (78181) - https://sketchapp.com -->
    <title>OnlyTheBest</title>
    <desc>Created with Sketch.</desc>
    <g id="Page-1" stroke="none" stroke-width="1" fill="none" fill-rule="evenodd">
        <g id="OnlyTheBest">
            <g id="Group">
                <polygon id="Path" fill="#FFFFFF" fill-rule="nonzero" points="24.503 7.468 15.703 16.268 46.3 52.182 78.383 16.54 68.23 7.807 58.889 3.407 32.627 3.407"></polygon>
                <polygon id="Path" fill="#E6E7E8" fill-rule="nonzero" points="46.299 3.407 63.086 10.176 72.02 19.788 46.3 52.955 78.384 16.539 68.231 7.469 58.89 3.407"></polygon>
                <path d="M46.299,12.206 L59.024,12.206 L68.23,7.468 L58.889,3.407 L46.299,3.407 M46.299,25.609 L61.596,25.338 L78.383,16.538" id="Shape" stroke="#000000" stroke-linecap="round" stroke-linejoin="round"></path>
                <polyline id="Path" stroke="#000000" stroke-linecap="round" stroke-linejoin="round" points="46.299 12.206 46.299 52.955 78.383 16.539 68.23 7.469"></polyline>
                <path d="M59.024,12.206 L61.596,25.338 L46.3,52.955 M46.299,12.206 L33.709,12.206 L24.503,7.468 L33.844,3.407 L46.3,3.407 M46.299,25.609 L31.137,25.338 L14.35,16.538" id="Shape" stroke="#000000" stroke-linecap="round" stroke-linejoin="round"></path>
                <polyline id="Path" stroke="#000000" stroke-linecap="round" stroke-linejoin="round" points="46.299 12.206 46.299 52.955 14.349 16.539 24.503 7.469"></polyline>
                <polyline id="Path" stroke="#000000" stroke-linecap="round" stroke-linejoin="round" points="33.709 12.206 31.137 25.338 46.299 52.955"></polyline>
                <circle id="Oval" fill="#E0B490" fill-rule="nonzero" cx="1.76" cy="5.032" r="1.625"></circle>
                <circle id="Oval" fill="#E0B490" fill-rule="nonzero" cx="3.791" cy="27.369" r="1.083"></circle>
                <path d="M16.245,13.019 L13.538,8.687 C13.402,8.551 13.132,8.551 13.132,8.687 L10.424,13.019 L10.289,13.154 L5.415,16.132 C5.28,16.268 5.28,16.539 5.415,16.539 L10.289,19.517 C10.289,19.517 10.424,19.517 10.424,19.652 L13.132,24.39 C13.267,24.526 13.538,24.526 13.538,24.39 L16.245,19.652 C16.245,19.652 16.245,19.517 16.381,19.517 L21.254,16.539 C21.39,16.403 21.39,16.268 21.254,16.132 L16.245,13.019 C16.245,13.154 16.245,13.019 16.245,13.019 Z" id="Path" stroke="#E0B490" fill="#FFFFFF" fill-rule="nonzero" stroke-linecap="round" stroke-linejoin="round"></path>
                <polygon id="Path" fill="#E0B490" fill-rule="nonzero" points="18.411 1.106 17.734 0.023 17.6 0.023 16.923 1.106 15.705 1.918 15.705 2.053 16.923 2.865 17.6 4.084 17.735 4.084 18.412 2.865 19.631 2.053 19.631 1.918 18.412 1.106"></polygon>
            </g>
        </g>
    </g>
</svg>