<?xml version="1.0" encoding="UTF-8"?>
<svg width="87px" height="52px" viewBox="0 0 87 52" version="1.1" xmlns="http://www.w3.org/2000/svg" xmlns:xlink="http://www.w3.org/1999/xlink">
    <!-- Generator: Sketch 55.2 (78181) - https://sketchapp.com -->
    <title>PartwayThere</title>
    <desc>Created with Sketch.</desc>
    <g id="Page-1" stroke="none" stroke-width="1" fill="none" fill-rule="evenodd" stroke-linejoin="round">
        <g id="PartwayThere" transform="translate(0.000000, 1.000000)" stroke="#000000">
            <g id="Group" transform="translate(0.000000, 0.000000)">
                <g stroke-linecap="round">
                    <polygon id="Path" fill="#FFFFFF" fill-rule="nonzero" points="0.884 0.296 86.271 0.296 86.271 49.698 0.884 49.698"></polygon>
                    <path d="M86.27,49.698 L69.474,38.27 L17.682,38.27 L0.884,49.698 M69.48,0.296 L69.48,38.273 M17.84,0.296 L17.84,38.273" id="Shape"></path>
                </g>
                <polygon id="Path" fill="#FFFFFF" fill-rule="nonzero" stroke-linecap="round" points="27 36.082 58.959 36.082 58.959 40.817 27 40.817"></polygon>
                <path d="M28.776,41.408 L28.776,42 M57.184,41.408 L57.184,42" id="Shape" stroke-linecap="square"></path>
                <path d="M28.776,33.122 C28.778754,31.4885412 30.1025404,30.1652021 31.736,30.163 L54.224,30.163 C55.8583057,30.1641031 57.1828969,31.4886943 57.184,33.123 L57.184,36.082 L28.776,36.082 L28.776,33.122 L28.776,33.122 Z" id="Path" fill="#FFFFFF" fill-rule="nonzero" stroke-linecap="round"></path>
            </g>
        </g>
    </g>
</svg>