<?xml version="1.0" encoding="UTF-8"?>
<svg width="42px" height="59px" viewBox="0 0 42 59" version="1.1" xmlns="http://www.w3.org/2000/svg" xmlns:xlink="http://www.w3.org/1999/xlink">
    <!-- Generator: Sketch 55.2 (78181) - https://sketchapp.com -->
    <title>Rent</title>
    <desc>Created with Sketch.</desc>
    <g id="Page-1" stroke="none" stroke-width="1" fill="none" fill-rule="evenodd" stroke-linecap="round" stroke-linejoin="round">
        <g id="Rent" transform="translate(1.000000, 1.000000)" stroke="#000000">
            <g id="Group">
                <path d="M17.538,23.692 C17.538,18.864 13.609,14.935 8.781,14.935 C3.953,14.935 0.024,18.864 0.024,23.692 C0.0247061145,27.373485 2.33483035,30.6588617 5.799,31.905 L5.799,35.503 L7.953,37.42 L5.799,39.337 L5.799,40.9 L7.953,42.818 L5.799,44.735 L5.799,46.297 L7.953,48.214 L5.799,50.131 L5.799,53.066 L10.391,56.616 L11.787,53.066 L11.787,31.906 C15.124,30.676 17.538,27.48 17.538,23.693 L17.538,23.692 Z" id="Path" fill="#FFFFFF" fill-rule="nonzero"></path>
                <circle id="Oval" cx="8.686" cy="21.657" r="2.32"></circle>
                <path d="M8.781,19.337 L8.781,11.172 C8.781,5.042 13.728,0.095 19.834,0.095 C25.941,0.095 30.911,5.041 30.911,11.172 L30.911,26.39" id="Path"></path>
                <path d="M39.077,55.314 L22.746,55.314 C22.2360792,55.314 21.8225519,54.9009205 21.822,54.391 L21.822,27.29 C21.822,26.793 22.225,26.367 22.746,26.367 L39.053,26.367 C39.55,26.367 39.976,26.769 39.976,27.29 L39.976,54.414 C39.976,54.911 39.574,55.314 39.076,55.314 L39.077,55.314 Z" id="Path" fill="#FFFFFF" fill-rule="nonzero"></path>
                <path d="M34.556,33.16 L27.243,33.16 C26.6953916,33.1567241 26.2522759,32.7136084 26.249,32.166 C26.2522759,31.6183916 26.6953916,31.1752759 27.243,31.172 L34.556,31.172 C35.1036084,31.1752759 35.5467241,31.6183916 35.55,32.166 C35.5467241,32.7136084 35.1036084,33.1567241 34.556,33.16 Z M35.053,43.834 L35.053,49.373 L26.77,49.373 L26.77,43.834 L35.053,43.834 Z" id="Shape"></path>
                <polyline id="Path" points="36.52 45.278 30.911 39.668 25.301 45.278"></polyline>
            </g>
        </g>
    </g>
</svg>