<?xml version="1.0" encoding="UTF-8"?>
<svg width="58px" height="55px" viewBox="0 0 58 55" version="1.1" xmlns="http://www.w3.org/2000/svg" xmlns:xlink="http://www.w3.org/1999/xlink">
    <!-- Generator: Sketch 55.2 (78181) - https://sketchapp.com -->
    <title>Soonish</title>
    <desc>Created with Sketch.</desc>
    <g id="Page-1" stroke="none" stroke-width="1" fill="none" fill-rule="evenodd">
        <g id="Soonish" transform="translate(1.000000, 1.000000)">
            <polygon id="Path" stroke="#000000" stroke-width="1.5" fill="#FFFFFF" fill-rule="nonzero" stroke-linecap="round" stroke-linejoin="round" points="0 3.742 49.127 3.742 49.127 52.869 0 52.869"></polygon>
            <path d="M0,11.95 L49.127,11.95 M13.881,0.241 L13.881,7.363 M6.76,20.64 L13.881,20.64 M21.002,20.64 L28.124,20.64 M6.76,28.365 L13.881,28.365 M21.002,28.365 L28.124,28.365 M6.76,35.97 L13.881,35.97 M21.002,35.97 L28.124,35.97 M35.246,43.574 L42.367,43.574 M6.76,43.574 L13.881,43.574 M21.002,43.574 L28.124,43.574 M35.246,0.241 L35.246,7.363" id="Shape" stroke="#000000" stroke-width="1.5" stroke-linecap="round" stroke-linejoin="round"></path>
            <path d="M53.593,34.039 C54.8,32.228 55.5230381,30.176 55.5230381,27.762 C55.5307255,24.8147561 54.3634937,21.9859686 52.2796581,19.9017576 C50.1958225,17.8175467 47.3672452,16.6498053 44.42,16.6569619 C41.4724086,16.6492722 38.6433162,17.8167782 36.5590472,19.9010472 C34.4747782,21.9853162 33.3072722,24.8144086 33.3149619,27.762 C33.3072722,30.7095914 34.4747782,33.5386838 36.5590472,35.6229528 C38.6433162,37.7072218 41.4724086,38.8747278 44.42,38.8670381 C46.593,38.8670381 48.645,38.263 50.335,37.177 L53.594,37.177 L53.594,34.039 L53.593,34.039 Z" id="Path" stroke="#E0B490" stroke-width="1.5" fill="#FFFFFF" fill-rule="nonzero" stroke-linecap="round" stroke-linejoin="round"></path>
            <path d="M49.61,22.45 L39.35,22.45" id="Path" stroke="#000000" stroke-width="0.702" stroke-linecap="round" stroke-linejoin="round"></path>
            <path d="M48.644,23.175 L48.644,22.33 L40.315,22.33 L40.315,23.175 C40.315,24.865 41.401,26.435 42.971,27.038 C43.453,27.279 43.816,27.641 43.816,28.124 C43.816,28.607 43.453,29.09 42.971,29.21 C41.401,29.814 40.315,31.262 40.315,33.073 L40.315,33.918 L48.644,33.918 L48.644,33.073 C48.644,31.383 47.557,29.813 45.988,29.21 C45.505,28.969 45.143,28.607 45.143,28.124 C45.143,27.641 45.505,27.158 45.988,27.038 C47.558,26.434 48.644,24.986 48.644,23.175 Z" id="Path" stroke="#000000" fill="#FFFFFF" fill-rule="nonzero" stroke-linecap="round" stroke-linejoin="round"></path>
            <path d="M42.005,23.779 C42.125,24.744 42.729,25.589 43.695,25.951 C44.057,26.072 44.298,26.313 44.298,26.676 L44.298,29.21 L44.66,29.21 L44.66,26.676 C44.66,26.313 44.902,26.072 45.264,25.951 C46.23,25.71 46.834,24.865 46.954,23.779 C46.9452811,23.6491298 46.8418702,23.5457189 46.712,23.537 L42.246,23.537 C42.1165201,23.5461966 42.0136604,23.6494831 42.005,23.779 L42.005,23.779 Z M40.919,33.918 C40.919,33.918 42.488,31.745 44.66,31.745 C46.712,31.745 48.402,33.918 48.402,33.918 L40.92,33.918 L40.919,33.918 Z" id="Shape" fill="#D1D3D4" fill-rule="nonzero"></path>
            <path d="M49.61,33.918 L39.35,33.918" id="Path" stroke="#000000" stroke-width="0.702" stroke-linecap="round" stroke-linejoin="round"></path>
        </g>
    </g>
</svg>