<?xml version="1.0" encoding="UTF-8"?>
<svg width="53px" height="54px" viewBox="0 0 53 54" version="1.1" xmlns="http://www.w3.org/2000/svg" xmlns:xlink="http://www.w3.org/1999/xlink">
    <!-- Generator: Sketch 55.2 (78181) - https://sketchapp.com -->
    <title>Townhouse</title>
    <desc>Created with Sketch.</desc>
    <g id="Page-1" stroke="none" stroke-width="1" fill="none" fill-rule="evenodd">
        <g id="Townhouse" transform="translate(1.000000, 1.000000)" stroke="#000000">
            <g id="Group">
                <g transform="translate(6.000000, 0.000000)" fill="#FFFFFF" fill-rule="nonzero" id="Path">
                    <polygon points="0.856 1.374 37.899 1.374 37.899 13.912 0.856 13.912"></polygon>
                    <polygon points="19.092 0.234 33.34 13.91 36.19 13.91 36.19 52.093 1.995 52.093 1.995 13.91 4.845 13.91 19.091 0.233"></polygon>
                </g>
                <path d="M21.388,42.768 L28.529,42.768 L28.529,51.544 L21.388,51.544 L21.388,42.768 Z M22.186,9.118 L27.731,9.118 L27.731,14.663 L22.186,14.663 L22.186,9.118 Z M14.247,19.75 L22.545,19.75 L22.545,26.512 L14.247,26.512 L14.247,19.75 Z M27.392,19.75 L35.69,19.75 L35.69,26.511 L27.392,26.511 L27.392,19.75 Z M14.247,30.76 L22.545,30.76 L22.545,37.522 L14.247,37.522 L14.247,30.76 Z M27.392,30.76 L35.69,30.76 L35.69,37.522 L27.392,37.522 L27.392,30.76 Z" id="Shape" stroke-linecap="round" stroke-linejoin="round"></path>
                <path d="M0.017,52.379 L50.737,52.379" id="Path" stroke-linecap="square"></path>
            </g>
        </g>
    </g>
</svg>